<svg>
<!--<?xml version="1.0" encoding="utf-8"?>-->
<!--&lt;!&ndash; Generator: Adobe Illustrator 15.0.0, SVG Export Plug-In . SVG Version: 6.00 Build 0)  &ndash;&gt;-->
<!--<!DOCTYPE svg PUBLIC "-//W3C//DTD SVG 1.1//EN" "http://www.w3.org/Graphics/SVG/1.1/DTD/svg11.dtd">-->
<svg version="1.1" id="Слой_1" xmlns="http://www.w3.org/2000/svg" xmlns:xlink="http://www.w3.org/1999/xlink" x="0px" y="0px"
	  viewBox="0 0 595.279 841.89" enable-background="new 0 0 595.279 841.89"
	 xml:space="preserve">
<g>
	<path fill="#AFAFAF" d="M441.176,350.641c1.623-1.021,1.532-3.474,2.16-5.28c0.763-2.193,1.865-4.453,3.6-5.76
		c1.453-1.093,5.04-2.896,6.961-2.64c1.974,0.263,5.707,4.267,6.479,6.24c1.894,4.835,0.011,12.55-1.2,18.24
		c-3.004,14.119-4.275,31.603-9.119,44.16c-1.065,2.763-2.478,4.079-3.359,6c-1.731,3.769-2.406,8.377-4.08,12.479
		c-1.679,4.111-2.854,8.332-4.801,11.76c-1.244,2.191-3.541,4.271-4.319,6.24c0.759,3.07-0.957,7.018-1.92,11.041
		c-1.846,7.703-4.287,15.627-6.722,22.799c-0.979,2.885-2.578,5.738-3.84,8.641c-2.668,6.146-4.967,12.396-7.438,18.721
		c-3.697,9.457-7.355,20.723-9.601,31.439c-1.578,7.535-3.115,14.676-6,21.359c-2.727,6.318-6.27,12-10.08,17.281
		c-3.205,15.744-3.728,34.67-5.279,52.318c-0.549,6.225-0.133,12.561-0.96,18.24c-0.229,1.557-1.102,3.006-1.2,4.561
		c-0.667,10.396,2.829,19.34,5.279,27.6c-2.114,2.992-5.372,5.42-8.641,7.439c-9.909,6.127-23.676,9.498-36.959,12.24
		c-18.119,3.74-38.959,5.168-60.96,3.602c-10.058-0.719-18.863-2.637-27.84-5.041c-8.726-2.336-17.756-3.562-26.88-5.76
		c-8.253-1.988-17.129-4.883-25.92-6.961c-8.286-1.957-20.802-2.346-26.88-5.76c-2.288-1.285-6.273-5.262-5.76-8.641
		c0.17-1.121,2.205-2.441,3.359-3.84c6.312-7.635,12.46-15.854,15.84-26.16c0.57-1.736,0.726-3.766,1.44-5.521
		c0.432-1.059,1.302-1.861,1.68-3.119c2.491-8.295,1.184-21.467,1.681-31.92c0.594-12.463,3.02-23.725,0.72-36
		c-0.417-2.227-0.847-4.426-1.2-6.721c-0.349-2.268-0.203-4.785-0.72-6.959c-0.568-2.389-3.094-4.508-3.84-6.961
		c-0.524-1.723-0.186-3.43-0.48-5.279c-0.482-3.023-2.271-6.221-3.12-9.6c-2.412-9.615-3.862-20.846-6.479-30.961
		c-2.585-9.992-5.692-19.357-9.12-28.561c-1.199-3.219-1.671-6.684-2.88-9.6c-1.063-2.562-3.037-3.502-4.561-6
		c-3.631-5.957-5.353-12.467-8.399-19.439c-1.397-3.197-2.766-6.506-4.08-9.84c-1.301-3.301-2.915-6.731-3.601-10.08
		c-0.577-2.827-0.44-5.963-0.72-9.12c-0.254-2.877-0.604-5.894-0.96-8.88c-0.67-5.639-0.822-11.664-1.68-17.76
		c-0.527-3.748-1.99-7.22-2.641-11.04c-0.653-3.843-0.229-7.969-0.72-12.72c-0.286-2.766-1.736-5.676-1.2-8.64
		c0.415-2.296,1.745-3.743,4.08-5.04c-1.996,0.104-0.342-2.686,0.24-4.08c4.389-0.213,6.301,3.149,8.16,5.52
		c2.074,2.646,3.928,5.118,6.72,6.96c-5.533-24.146-4.02-56.389,0.24-80.64c4.42-25.169,12.646-45.71,23.28-64.08
		c5.407-9.341,12.083-16.852,19.199-24.72c7.024-7.766,15.015-14.441,24.48-19.2c10.104-5.08,20.853-7.871,32.88-10.8
		c5.945-1.448,11.625-3.249,18.24-3.6c6.648-0.354,14.679,0.169,22.08-0.72c6.691-0.804,13.409,1.357,20.399,2.16
		c7.104,0.815,13.905,1.354,19.921,2.64c9.15,1.956,17.508,5.186,25.92,7.92c1.322,0.43,2.729,0.561,4.08,0.96
		c1.392,0.412,2.604,1.398,3.84,1.68c2.476,0.565,3.804,0.342,5.521,0.96c3.049,1.098,5.729,3.56,8.88,5.04
		c9.479,4.451,18.394,9.766,24.479,17.28c4.273,5.274,8.548,10.007,12.24,15.6c3.636,5.505,6.578,11.552,10.08,17.76
		c3.504,6.211,6.626,12.097,8.641,19.2c2.031,7.164,3.974,14.773,4.801,23.04c1.296,12.957-0.204,27.042-0.96,39.84
		c-0.783,13.237-1.434,27.034-1.2,42.24c0.03,1.995,0.573,4.084,0.479,6C440.843,346.287,438.529,348.712,441.176,350.641z"/>
	<g>
		<path d="M454.526,335.169c-6.011-1.171-9.808,5.394-12.238,7.68c-0.205-15.601,1.062-29.438,2.398-43.2
			c1.354-13.933,3.489-28,2.399-43.2c-0.562-7.861-2.819-15.537-4.799-22.8c-1.996-7.317-4.828-13.558-8.16-19.44
			c-6.896-12.171-13.498-23.503-22.08-33.12c-18.066-20.242-46.092-27.138-77.041-33.36c9.348,3.002,18.391,4.74,26.641,7.68
			c8.545,3.044,16.463,6.302,24,10.08c7.244,3.631,15.129,8.099,20.16,13.92c5.289,6.121,10.185,12.422,14.64,19.439
			c8.965,14.117,16.849,28.391,20.641,47.521c2.887,14.562,2.104,32.028,0.961,47.76c-1.047,14.38-1.835,28.889-1.44,45.36
			c0.05,2.089,0.632,4.193,0.479,6c-0.125,1.489-2.199,4.416,0,5.76c2.83,0.13,2.267-2.915,3.121-4.8
			c1.046-2.309,6.011-9.612,10.08-8.88c2.037,0.367,4.659,4.854,5.039,7.92c2.105,17.048-3.558,28.056-6.721,40.8
			c-0.691,2.792-1.855,5.711-2.16,8.4c-0.119,1.062,0.11,2.684,0,3.36c-0.219,1.34-1.055,2.882-1.439,4.32
			c-1.148,4.289-1.817,9.201-3.119,13.44c-1.805,5.875-4.307,11.614-6.48,15.36c1.146-7.035,1.541-15.961,1.2-24.48
			c-0.232-5.847-0.277-11.734-1.439-16.8c0.351,12.84-0.025,26.232-2.16,37.919c-1.025,5.623-0.978,11.471-3.359,15.361
			c0.533,2.42-0.771,6.66-1.68,10.559c-1.203,5.156-2.916,10.152-4.562,15.121c-1.79,5.412-3.319,10.082-5.52,14.641
			c-1.086,2.248-2.301,4.547-3.12,6.959c-0.37,1.09-0.298,2.459-0.72,3.6c-1.115,3.021-2.947,5.803-4.08,8.881
			c-2.283,6.201-4.217,12.602-6.24,19.199c-0.969,3.16-2.341,6.4-3.12,9.602c-1.574,6.469-1.824,12.398-3.601,17.76
			c-0.9,2.721-2.014,5.215-3.119,7.682c-1.068,2.383-2.529,4.264-3.84,6.719c-1.537,2.881-2.621,5.541-4.562,8.16
			c-5.153,6.961-11.344,14.438-18.479,19.68c-7.132,5.24-14.775,10.477-21.359,16.801c-2.037,1.957-4.563,4.496-6.721,5.76
			c-2.779,1.631-6.093,2.578-9.119,3.84c-8.56,3.574-19.082,7.357-28.8,9.602c-7.625,1.76-15.938,1.379-23.76,0.479
			c-7.348-0.842-14.665-2.453-20.88-4.799c-12.024-4.539-21.277-12.666-30.479-20.881c-6.514-5.812-12.653-13.041-18.479-19.92
			c-5.805-6.854-11.01-14.615-15.601-22.801c-3.031-5.406-5.375-11.334-8.399-17.279c-2.821-5.545-4.983-12.389-6.48-19.199
			c-1.514-6.891-3.445-14.025-4.56-21.121c-2.268-14.441-7.396-26.848-11.76-39.6c-1.072-3.131-1.647-6.637-2.881-10.08
			c-1.158-3.234-2.026-6.713-2.64-10.08c-1.288-7.072-3.294-14.254-3.84-21.599c-0.95-12.784,0.899-26.023-0.72-37.92
			c-1.02,1.958-1.054,4.235-1.2,6.48c-0.319,4.866,0,10.409,0,15.84c0,5.277-0.386,10.763,0,15.6
			c0.847,10.621,4.329,21.048,5.52,29.759c-2.416-6.402-5.346-11.73-8.159-18c-3.699-8.238-8.606-17.134-8.881-28.559
			c-0.128-5.36,1.039-11.466,0.24-18.48c-0.733-6.447-4.797-13.588-6-21.12c-1.323-8.283-1.244-16.906,0.96-24.48
			c0.034,0.926-0.188,2.107,0.48,2.4c0.077-0.563,0.379-0.901,0.239-1.68c3.92,6.801,7.274,14.166,9.841,22.32
			c-1.764,2.074-1.247,6.708-1.44,10.8c-0.521,11.054,1.978,19.547,2.88,30.24c0.164,1.94-0.712,3.811,0.72,5.52
			c0.068-5.704,1.852-11.153,1.681-16.8c-0.155-5.154-1.668-10.087-1.681-15.36c0.872,0.808,0.072,3.287,1.921,3.12
			c1.385-1.554,0.271-3.763,0-5.52c-1.596-10.306-3.562-18.609-7.44-26.88c-1.603-3.417-3.119-8.905-5.76-10.32
			c-0.309-0.165-1.424,0.211-0.96-0.48c0.502-1.098,0.354-2.846,1.439-3.36c7.503,0.656,8.062,8.258,13.2,11.28
			c1.526,6.234,2.216,13.304,5.28,18c-2.488-11.576-6.369-23.821-7.2-36.96c-0.92-14.544,0.03-29.295,1.2-42.96
			c1.131-13.206,3.469-26.019,6.72-37.44c3.35-11.766,7.699-21.93,12.48-31.44c4.812-9.571,9.656-19.613,16.56-27.6
			c6.919-8.006,13.766-16.112,22.32-21.84c9.209-6.167,17.654-10.55,29.76-14.4c9.908-3.151,21.223-3.774,31.92-6.72
			c1.193-0.329,2.894-0.363,3.84-1.44c-23.633,1.428-45.39,5.984-61.2,16.08c-8.318,5.312-14.563,10.551-21.119,17.76
			c-6.203,6.82-11.919,13.728-17.04,21.84c-4.786,7.58-9.325,16.528-13.2,25.68c-7.835,18.505-12.212,38.794-13.92,63.84
			c-1.155,16.942-1.779,38.212,2.399,52.56c-2.005-1.837-7.288-11.441-12.96-7.92c-2.042,1.268-2.523,9.054-3.12,12.96
			c-0.863,5.663,0.018,11.546-0.72,15.6c0,1.36,0,2.72,0,4.08c0.788,3.238,1.292,6.316,2.16,9.36c0.847,2.969,2.39,5.767,2.64,8.64
			c0.857,9.861-1.188,20.269,1.2,29.28c1.688,6.368,6.067,13.771,8.88,19.679c2.31,4.852,5.192,9.283,7.2,14.4
			c0.667,1.701,0.83,3.785,1.68,5.279c0.559,0.98,1.572,1.449,2.4,2.16c3.769,16.215,10.152,31.719,12.96,49.199
			c1.881,11.717,4.255,22.799,7.92,33.119c1.158,3.264,2.982,6.312,4.08,9.602c1.039,3.111,1.351,6.75,2.16,10.08
			s1.917,6.639,2.16,9.84c0.393,5.172-0.24,10.586-0.24,15.842c0,16.621,1.218,32.225-1.92,45.359
			c-4.342,18.176-13.27,30.959-22.561,43.199c1.894-0.334,2.996-2.447,4.08-3.842c8.291-10.645,16.473-22.99,20.641-38.158
			c2.357-8.58,2.88-19.479,2.88-30.721c0-15.514,0.98-29.088-2.4-41.279c4.822,8.242,9.958,16.252,16.08,23.52
			c2.078,2.467,4.781,4.559,6.48,7.201c1.797,2.795,3.127,6.014,5.279,8.641c1.598,1.947,3.867,3.812,5.761,5.76
			c16.729,17.207,35.83,32.777,70.8,31.68c6.746-0.211,13.021-1.631,19.199-3.6c11.61-3.699,22.356-7.426,31.92-13.682
			c4.902-3.205,8.888-7.492,13.2-11.76c0.965-0.953,2.37-2.014,3.601-2.881c8.547-6.023,17.237-12.924,24-20.398
			c-0.774,3.582-1.827,7.209-2.88,11.039c-2.969,10.799-3.601,24.252-3.601,37.682c0,17.789-0.096,36.783,5.76,49.439
			c-5.929-21.619-3.75-50.707-1.68-74.881c0.355-4.148,0.88-7.824,1.92-11.521c1.388-4.932,3.304-9.279,2.4-14.398
			c3.438-3.574,5.676-7.92,8.398-12.721c1.521-2.68,3.104-5.156,4.319-7.92c2.607-5.928,4.102-11.939,5.521-18.721
			c1.313-6.273,3.315-12.674,5.521-18.959c2.169-6.186,3.679-12.516,6-18.24c1.616-3.988,3.461-7.871,5.039-11.76
			c3.843-9.463,8.291-20.043,11.041-30.961c0.858-3.416,1.217-7.068,2.16-10.561c0.918-3.404,1.162-6.924,2.159-10.318
			c1.56-5.314,5.104-10.1,7.439-15.361c1.234-2.778,2.115-5.351,3.119-8.159c1.029-2.877,1.422-5.68,2.16-9.12
			c0.337-1.567,1.493-3.237,1.681-5.04c0.119-1.151-0.412-3.866-0.24-5.76c0.439-4.843,2.246-10.99,3.841-15.84
			c1.595-4.853,3.298-10.27,4.079-15.6C461.693,354.82,461.977,336.622,454.526,335.169z M353.006,608.529
			c-0.422-0.596,1.287-1.104,1.681-1.68C355.109,607.445,353.4,607.955,353.006,608.529z"/>
		<path d="M441.086,392.049c-0.277,1.384-0.019,3.569,0,5.28c0.017,1.51-0.509,3.832,1.201,4.08c3.075-2.748,2.438-7.599,3.6-11.52
			c1.688-5.699,2.441-15.748,1.68-22.56c-0.179-1.596-1.01-3.187-0.96-4.8c0.116-3.752,2.128-7.77,3.36-11.04
			c1.428-3.788,3.093-7.204,4.08-10.56c-0.16,0-0.32,0-0.48,0c-4.835,3.171-5.774,12.452-8.641,19.68
			c-0.317,0.803-1.038,1.369-1.199,2.16c-0.247,1.214,0.131,2.915,0,4.08c-0.213,1.901-1.125,4.224-1.438,6.24
			c-0.297,1.892-1.45,5.256,1.198,5.76c1.602-1.439,0.37-5.71,1.439-7.68c-0.245,6.191,0.421,11.313-1.199,16.08
			C443.117,389.043,441.424,390.373,441.086,392.049z"/>
		<path d="M279.806,584.048c7.147-1.215,14.655-1.146,22.08-1.68c2.02-0.145,5.138,0.672,6.72-0.719
			c-6.867,0.08-15.367-1.539-22.8-0.961c-3.757,0.293-9.714,0.738-10.56,3.359C276.486,585.505,278.393,584.291,279.806,584.048z"/>
	</g>
</g>

<svg version="1.1" id="Слой_1" xmlns="http://www.w3.org/2000/svg" xmlns:xlink="http://www.w3.org/1999/xlink" x="0px" y="0px"
	 viewBox="0 0 214.544 93.298" enable-background="new 0 0 214.544 93.298"
	 xml:space="preserve">
<g>
	<path fill-rule="evenodd" clip-rule="evenodd" fill="#6D6E70" d="M114.233,27.93c4.447-2.762,8.037-4.765,14.879-2.88
		c2.068,0.569,4.457,1.263,6.24,1.92c2.814,1.036,5.152,3.14,7.68,3.84c1.398,0.387,4.006,0.172,5.281,0.72
		c0.873,0.375,1.447,1.657,2.4,2.16c1.787,0.944,4.32,1.354,6.238,2.16c3.617,1.519,6.879,2.862,8.4,6.24
		c7.643,3.45-0.527,9.052-5.52,11.04c-15.811,6.295-40.625,2.246-60.48,3.6c-16.936,1.154-34.77,0.389-42.719-9.359
		c-2.504-0.393-5.395-2.494-5.281-5.28c0.135-3.312,6.285-5.122,9.84-6.72c4.125-1.855,8.102-2.919,12-4.32
		c3.863-1.389,7.791-3.269,12-4.32C92.57,24.887,109.356,22.11,114.233,27.93z"/>
	<g>
		<path fill-rule="evenodd" clip-rule="evenodd" d="M92.392,34.725c-1.533,1.918-4.746,3.396-5.039,5.76
			c2.391-0.491,3.162-3.876,4.799-4.32c-0.494,1.505-1.623,2.376-1.92,4.08C91.933,39.681,93.625,36.63,92.392,34.725z"/>
		<path fill-rule="evenodd" clip-rule="evenodd" d="M84.472,40.726c1.521-0.742,3.689-2.854,4.08-5.521
			c-0.33,0.01-0.527-0.113-0.719-0.24C87.175,37.206,84.441,38.589,84.472,40.726z"/>
		<path fill-rule="evenodd" clip-rule="evenodd" d="M93.833,38.565c0.441-0.74,0.342-2.643-0.24-3.12
			C93.748,36.411,93.281,37.997,93.833,38.565z"/>
		<path fill-rule="evenodd" clip-rule="evenodd" d="M96.712,35.925c-0.33,0.011-0.527-0.113-0.719-0.24
			c-0.49,0.736-0.775,2.475,0.719,2.4C96.712,37.365,96.712,36.645,96.712,35.925z"/>
		<path fill-rule="evenodd" clip-rule="evenodd" d="M70.792,46.005c-0.121,2.203,0.668,4.77,0.24,6.48
			c-2.594-1.646-0.84-7.641-1.68-11.041c-1.793,1.429-0.768,6.338-0.721,8.881c-1.348-0.229-1.33,0.91-1.68,1.68
			c-1.115-1.408-2.74-1.496-3.119-3.359c-0.566-2.781,2.209-6.455,1.199-8.641c-1.379,2.462-0.84,6.84-2.4,9.119
			c0.215,0.748,0.803,1.119,0.961,1.92c-1.773-1.025-2.588-3.012-4.561-3.839c-0.744,1.903,2.707,2.862,2.641,4.079
			c-3.004-1.396-3.682-5.119-6.721-6.479c1.42,2.248,2.557,5.896,6,6.719c2.857,0.684,4.264,2.238,6.48,2.641
			c2.879,0.521,4.523,1.799,6.48,0.48c-0.869-0.412-1.52-1.041-2.16-1.682C71.642,50.187,72.412,47.544,70.792,46.005z"/>
		<path fill-rule="evenodd" clip-rule="evenodd" d="M139.433,45.524c0.357-0.293,1.48-0.493,1.199-1.199
			c-1.695,0.785-2.572,2.388-4.32,3.119c0.592-0.934,1.016-5.336-0.479-4.799c0.67,3.324-2.1,6.305-2.641,8.398
			C135.94,50.179,137.489,47.116,139.433,45.524z"/>
		<path fill-rule="evenodd" clip-rule="evenodd" d="M149.993,43.365c-0.336,0.634-0.445,2.744,0,3.36
			C150.226,45.989,150.505,44.051,149.993,43.365z"/>
		<path fill-rule="evenodd" clip-rule="evenodd" d="M149.753,48.646c0.143,0.496-0.297,1.576,0.24,1.68
			C149.804,49.733,150.864,48.663,149.753,48.646z"/>
		<path fill-rule="evenodd" clip-rule="evenodd" d="M166.792,51.524c-0.463,0.496-0.584,1.336-0.959,1.92
			c-1.566,1.557-5.078,1.164-6.721,2.641c3.281,1.477,6.338-1.311,8.16-2.881C167.231,52.526,167.479,51.558,166.792,51.524z"/>
		<path fill-rule="evenodd" clip-rule="evenodd" d="M49.673,64.005c2.381,2.578,5.955,3.965,9.84,5.039c-2.9-2.299-6.84-3.561-9.6-6
			C49.837,63.37,49.572,63.503,49.673,64.005z"/>
		<path fill-rule="evenodd" clip-rule="evenodd" d="M169.913,46.245c0-0.4,0-0.801,0-1.2c-2.041-1.797-2.316-4.86-4.561-6.48
			c-1.316-0.949-3.367-1.007-5.041-1.68c-4.277-1.721-8.641-4.604-13.199-5.04c-0.641-1.007-2.316-2.099-3.6-1.68
			c-0.934,0.699,1.273,0.94,0.719,1.2c-6.729-0.179-11.527-0.206-18.238,0.24c1.068-1.171,2.385-2.093,3.6-3.12
			c-0.896,0.145-1.178,0.903-2.16,0.96c0.672-0.688,1.162-1.558,1.92-2.16c1.027,0.251,1.744,0.816,3.119,0.72
			c-1.904-1.634-4.703-3.605-7.92-3.6c-3.359,0.005-6.408,3.047-9.6,2.64c-3.193-0.407-5.773-4.555-9.119-1.92
			c3.888-0.421,6.593,3.777,8.878,4.08c3.533,0.468,6.477-2.861,9.359-4.32c0.664,1.417,3.416,0.746,3.842,2.4
			c-2.117,1.563-3.318,4.042-6,5.04c-0.07-0.423,1.129-0.743,0.479-0.96c-0.506,0.613-1.178,1.061-1.92,1.44
			c2.164-1.917,3.348-4.813,5.76-6.48c-1.623-0.263-1.828,0.891-2.16,1.92c-1.543,1.416-2.871,3.048-4.078,4.8
			c-0.557-0.077-0.922,0.039-1.201,0.24c-0.178,0.65,0.543,1.309-0.959,1.44c-0.436-1.927,2.107-3.001,1.68-4.8
			c-2.736,1.424-3.891,4.43-6.961,5.52c-2.961-3.119-6.402-5.757-8.16-10.08c0.723,0.841,0.697-1.354-0.24-0.96
			c-1.143,1.606,2.316,4.958-0.238,6.72c-1.576-1.785-2.523-4.197-4.08-6c-0.859,2.57,1.766,3.651,2.16,5.76
			c-0.979-0.382-2.17-0.552-3.602-0.48c-0.99-1.49-1.068-3.892-2.639-4.8c0.021,1.9,1.518,3.598,1.439,4.8
			c-8.646-0.045-17.729-0.155-24,0.96c6.953-2.087,14.266-3.814,20.879-6.24c-3.377,0.382-5.627,1.611-8.879,2.16
			c-3.959,0.668-7.557,1.197-11.041,2.4c-2.992,1.034-5.52,3.08-8.879,4.56c-3.969,1.748-8.168,2.476-11.76,4.32
			c-5.256,2.699-10.643,4.991-13.201,9.36c0,0.08,0,0.16,0,0.24c0.324,0.236,0.48,0.641,0.721,0.959
			c1.863,0.504,2.66-1.498,3.84-2.159c2.043-1.144,3.701-1.54,5.279-2.88c1.414-1.201,2.393-2.933,4.08-4.08
			c2.17-1.475,4.949-1.808,7.441-3.36c0.639,0,1.279,0,1.92,0c2.902-2.137,7.012-3.068,11.52-3.6c-0.557,1.84-0.873,3.593-0.24,5.52
			c1.322-0.915,1.486-4.007,1.199-5.76c1.855-0.234,3.129-1.183,5.041-1.2c6.801-0.061,13.953-0.535,19.439,0.48
			c5.1,0.943,9.343,5.085,13.201,6.72c2.869-1.771,6.967-2.312,9.119-4.8c0.879,0.408,2.154,1.679,2.881,1.44
			c-0.674-0.767-2.094-0.788-2.4-1.92c1.359,0,2.719,0,4.08,0c0.656,0.224,1.023,0.737,1.68,0.96c1.938-1.443,4.422,2.779,6.24,1.44
			c-1.598-0.722-1.984-2.656-3.84-3.12c4.953-1.192,6.586,2.212,8.639,3.12c-0.578-1.26-1.482-2.197-2.158-3.36
			c12.611-1.493,17.668,4.571,25.439,7.92c2.133,1.786,4.041,3.798,4.561,7.199c2.027-0.453,4.318,3.27,6.238,0.721
			C173.087,47.39,170.8,47.517,169.913,46.245z M105.353,31.125c0.096-1.137-0.428-1.651-0.24-2.88
			c1.641,1.799,3.132,3.747,4.8,5.52C108.548,33.687,107.056,31.664,105.353,31.125z"/>
		<path fill-rule="evenodd" clip-rule="evenodd" d="M79.433,42.165c-1.045,2.141-6.639,8.766-2.641,10.32
			C75.593,48.853,78.287,45.043,79.433,42.165z"/>
		<path fill-rule="evenodd" clip-rule="evenodd" d="M129.833,42.646c1.463,1.576,1.734,4.344,2.879,6.24
			C133.681,45.974,131.597,42.818,129.833,42.646z"/>
		<path fill-rule="evenodd" clip-rule="evenodd" d="M140.948,52.792c0.137-0.064,0.279-0.098,0.404-0.066
			C141.22,52.737,141.083,52.771,140.948,52.792c-0.377,0.176-0.689,0.598-0.316,0.652c2.639-0.729,3.861-4.58,2.641-7.68
			c0.24,7.121-6.381,7.379-10.801,9.84C135.343,54.899,138.345,53.19,140.948,52.792z"/>
		<path fill-rule="evenodd" clip-rule="evenodd" d="M80.248,65.251c-0.119,0.035-0.232,0.09-0.334,0.193
			C80.021,65.384,80.132,65.317,80.248,65.251z"/>
		<path fill-rule="evenodd" clip-rule="evenodd" d="M138.952,55.845c4.176-1.736,4.545-1.863,6.48-3.359
			c1.629-1.262-1.107,0.783-1.439,0.959c-8.996,4.723-23.812,1.383-35.762,2.4c-1.484,0.127-2.548,0.652-3.839,0.48
			c-2.287-0.305-5.074-2.744-7.439-1.92c1.605,0.473,2.98,1.18,4.08,2.16c-6.244,0.562-6.475-4.887-10.561-6.48
			c-0.463,3.072,3.301,3.861,4.32,6.24c-2.598,0.201-5.322-1.773-4.561-3.361c-1.98-1.057-2.279-3.799-3.84-5.279
			c-0.814,4.107,3.338,6.574,4.561,8.641c-4.348,0.107-8.129-0.352-11.76-0.961c0.994-2.793-0.836-5.766-0.48-7.92
			c-0.619,1.9-0.248,5.654-0.48,7.68c-0.146-0.07-0.924-0.596-0.959,0c2.43,1.012,4.504,2.377,7.439,2.881
			c0.668,3.793-2.406,6.035-4.465,7.246c0.689-0.205,1.621,0.537,2.305-0.047c2.535-1.736,5.783-4.402,8.881-5.279
			c3.508-0.992,9.059-0.053,13.199-0.24c10.455-0.475,20.648,1.383,27.121,4.561c2.955,1.451,5.365,3.783,8.398,4.32
			c-3.299-2.061-6.895-3.826-10.08-6c0.986,0.158,1.498,1.16,2.641,0.479c0.965-1.535-0.629-3.154-0.48-3.84
			c4.004-0.77,9.057-1.9,13.682-2.16c2.012-0.111,4.072,0.418,4.559-0.959C146.806,56.548,142.466,56.263,138.952,55.845z"/>
		<path fill-rule="evenodd" clip-rule="evenodd" d="M73.673,52.005c-0.285-0.756-0.27-1.811-0.721-2.4
			C72.99,50.386,73.474,52.95,73.673,52.005z"/>
		<path fill-rule="evenodd" clip-rule="evenodd" d="M160.552,47.444c-1.482,1.236-3.008,2.432-5.039,3.121
			c1.297-1.393,4.908-4.605,2.4-6.721c-0.309,2.256-1.66,4.738-3.121,5.041c0.613-1.252,1.023-3.632,0.48-5.281
			c-1.363-0.234-1.42,1.818-2.4,1.201c-0.053-0.908,0.244-2.164-0.721-2.16c0.32,2.508-0.561,4.998,0,6.959
			c0.678,0.322,0.602-1.271,0.961-0.48c0,0.4,0,0.801,0,1.201c-0.482,0.557-1.836,0.244-1.92,1.199
			C154.481,52.364,160.952,51.095,160.552,47.444z"/>
	</g>
</g>
</svg>

</svg>
	<svg version="1.1" id="Слой_1" xmlns="http://www.w3.org/2000/svg" xmlns:xlink="http://www.w3.org/1999/xlink" x="0px" y="0px"
	 viewBox="0 0 214.544 93.298" enable-background="new 0 0 214.544 93.298"
	 xml:space="preserve">
<g>
	<path fill-rule="evenodd" clip-rule="evenodd" fill="#6D6E70" d="M114.233,27.93c4.447-2.762,8.037-4.765,14.879-2.88
		c2.068,0.569,4.457,1.263,6.24,1.92c2.814,1.036,5.152,3.14,7.68,3.84c1.398,0.387,4.006,0.172,5.281,0.72
		c0.873,0.375,1.447,1.657,2.4,2.16c1.787,0.944,4.32,1.354,6.238,2.16c3.617,1.519,6.879,2.862,8.4,6.24
		c7.643,3.45-0.527,9.052-5.52,11.04c-15.811,6.295-40.625,2.246-60.48,3.6c-16.936,1.154-34.77,0.389-42.719-9.359
		c-2.504-0.393-5.395-2.494-5.281-5.28c0.135-3.312,6.285-5.122,9.84-6.72c4.125-1.855,8.102-2.919,12-4.32
		c3.863-1.389,7.791-3.269,12-4.32C92.57,24.887,109.356,22.11,114.233,27.93z"/>
	<g>
		<path fill-rule="evenodd" clip-rule="evenodd" d="M92.392,34.725c-1.533,1.918-4.746,3.396-5.039,5.76
			c2.391-0.491,3.162-3.876,4.799-4.32c-0.494,1.505-1.623,2.376-1.92,4.08C91.933,39.681,93.625,36.63,92.392,34.725z"/>
		<path fill-rule="evenodd" clip-rule="evenodd" d="M84.472,40.726c1.521-0.742,3.689-2.854,4.08-5.521
			c-0.33,0.01-0.527-0.113-0.719-0.24C87.175,37.206,84.441,38.589,84.472,40.726z"/>
		<path fill-rule="evenodd" clip-rule="evenodd" d="M93.833,38.565c0.441-0.74,0.342-2.643-0.24-3.12
			C93.748,36.411,93.281,37.997,93.833,38.565z"/>
		<path fill-rule="evenodd" clip-rule="evenodd" d="M96.712,35.925c-0.33,0.011-0.527-0.113-0.719-0.24
			c-0.49,0.736-0.775,2.475,0.719,2.4C96.712,37.365,96.712,36.645,96.712,35.925z"/>
		<path fill-rule="evenodd" clip-rule="evenodd" d="M70.792,46.005c-0.121,2.203,0.668,4.77,0.24,6.48
			c-2.594-1.646-0.84-7.641-1.68-11.041c-1.793,1.429-0.768,6.338-0.721,8.881c-1.348-0.229-1.33,0.91-1.68,1.68
			c-1.115-1.408-2.74-1.496-3.119-3.359c-0.566-2.781,2.209-6.455,1.199-8.641c-1.379,2.462-0.84,6.84-2.4,9.119
			c0.215,0.748,0.803,1.119,0.961,1.92c-1.773-1.025-2.588-3.012-4.561-3.839c-0.744,1.903,2.707,2.862,2.641,4.079
			c-3.004-1.396-3.682-5.119-6.721-6.479c1.42,2.248,2.557,5.896,6,6.719c2.857,0.684,4.264,2.238,6.48,2.641
			c2.879,0.521,4.523,1.799,6.48,0.48c-0.869-0.412-1.52-1.041-2.16-1.682C71.642,50.187,72.412,47.544,70.792,46.005z"/>
		<path fill-rule="evenodd" clip-rule="evenodd" d="M139.433,45.524c0.357-0.293,1.48-0.493,1.199-1.199
			c-1.695,0.785-2.572,2.388-4.32,3.119c0.592-0.934,1.016-5.336-0.479-4.799c0.67,3.324-2.1,6.305-2.641,8.398
			C135.94,50.179,137.489,47.116,139.433,45.524z"/>
		<path fill-rule="evenodd" clip-rule="evenodd" d="M149.993,43.365c-0.336,0.634-0.445,2.744,0,3.36
			C150.226,45.989,150.505,44.051,149.993,43.365z"/>
		<path fill-rule="evenodd" clip-rule="evenodd" d="M149.753,48.646c0.143,0.496-0.297,1.576,0.24,1.68
			C149.804,49.733,150.864,48.663,149.753,48.646z"/>
		<path fill-rule="evenodd" clip-rule="evenodd" d="M166.792,51.524c-0.463,0.496-0.584,1.336-0.959,1.92
			c-1.566,1.557-5.078,1.164-6.721,2.641c3.281,1.477,6.338-1.311,8.16-2.881C167.231,52.526,167.479,51.558,166.792,51.524z"/>
		<path fill-rule="evenodd" clip-rule="evenodd" d="M49.673,64.005c2.381,2.578,5.955,3.965,9.84,5.039c-2.9-2.299-6.84-3.561-9.6-6
			C49.837,63.37,49.572,63.503,49.673,64.005z"/>
		<path fill-rule="evenodd" clip-rule="evenodd" d="M169.913,46.245c0-0.4,0-0.801,0-1.2c-2.041-1.797-2.316-4.86-4.561-6.48
			c-1.316-0.949-3.367-1.007-5.041-1.68c-4.277-1.721-8.641-4.604-13.199-5.04c-0.641-1.007-2.316-2.099-3.6-1.68
			c-0.934,0.699,1.273,0.94,0.719,1.2c-6.729-0.179-11.527-0.206-18.238,0.24c1.068-1.171,2.385-2.093,3.6-3.12
			c-0.896,0.145-1.178,0.903-2.16,0.96c0.672-0.688,1.162-1.558,1.92-2.16c1.027,0.251,1.744,0.816,3.119,0.72
			c-1.904-1.634-4.703-3.605-7.92-3.6c-3.359,0.005-6.408,3.047-9.6,2.64c-3.193-0.407-5.773-4.555-9.119-1.92
			c3.888-0.421,6.593,3.777,8.878,4.08c3.533,0.468,6.477-2.861,9.359-4.32c0.664,1.417,3.416,0.746,3.842,2.4
			c-2.117,1.563-3.318,4.042-6,5.04c-0.07-0.423,1.129-0.743,0.479-0.96c-0.506,0.613-1.178,1.061-1.92,1.44
			c2.164-1.917,3.348-4.813,5.76-6.48c-1.623-0.263-1.828,0.891-2.16,1.92c-1.543,1.416-2.871,3.048-4.078,4.8
			c-0.557-0.077-0.922,0.039-1.201,0.24c-0.178,0.65,0.543,1.309-0.959,1.44c-0.436-1.927,2.107-3.001,1.68-4.8
			c-2.736,1.424-3.891,4.43-6.961,5.52c-2.961-3.119-6.402-5.757-8.16-10.08c0.723,0.841,0.697-1.354-0.24-0.96
			c-1.143,1.606,2.316,4.958-0.238,6.72c-1.576-1.785-2.523-4.197-4.08-6c-0.859,2.57,1.766,3.651,2.16,5.76
			c-0.979-0.382-2.17-0.552-3.602-0.48c-0.99-1.49-1.068-3.892-2.639-4.8c0.021,1.9,1.518,3.598,1.439,4.8
			c-8.646-0.045-17.729-0.155-24,0.96c6.953-2.087,14.266-3.814,20.879-6.24c-3.377,0.382-5.627,1.611-8.879,2.16
			c-3.959,0.668-7.557,1.197-11.041,2.4c-2.992,1.034-5.52,3.08-8.879,4.56c-3.969,1.748-8.168,2.476-11.76,4.32
			c-5.256,2.699-10.643,4.991-13.201,9.36c0,0.08,0,0.16,0,0.24c0.324,0.236,0.48,0.641,0.721,0.959
			c1.863,0.504,2.66-1.498,3.84-2.159c2.043-1.144,3.701-1.54,5.279-2.88c1.414-1.201,2.393-2.933,4.08-4.08
			c2.17-1.475,4.949-1.808,7.441-3.36c0.639,0,1.279,0,1.92,0c2.902-2.137,7.012-3.068,11.52-3.6c-0.557,1.84-0.873,3.593-0.24,5.52
			c1.322-0.915,1.486-4.007,1.199-5.76c1.855-0.234,3.129-1.183,5.041-1.2c6.801-0.061,13.953-0.535,19.439,0.48
			c5.1,0.943,9.343,5.085,13.201,6.72c2.869-1.771,6.967-2.312,9.119-4.8c0.879,0.408,2.154,1.679,2.881,1.44
			c-0.674-0.767-2.094-0.788-2.4-1.92c1.359,0,2.719,0,4.08,0c0.656,0.224,1.023,0.737,1.68,0.96c1.938-1.443,4.422,2.779,6.24,1.44
			c-1.598-0.722-1.984-2.656-3.84-3.12c4.953-1.192,6.586,2.212,8.639,3.12c-0.578-1.26-1.482-2.197-2.158-3.36
			c12.611-1.493,17.668,4.571,25.439,7.92c2.133,1.786,4.041,3.798,4.561,7.199c2.027-0.453,4.318,3.27,6.238,0.721
			C173.087,47.39,170.8,47.517,169.913,46.245z M105.353,31.125c0.096-1.137-0.428-1.651-0.24-2.88
			c1.641,1.799,3.132,3.747,4.8,5.52C108.548,33.687,107.056,31.664,105.353,31.125z"/>
		<path fill-rule="evenodd" clip-rule="evenodd" d="M79.433,42.165c-1.045,2.141-6.639,8.766-2.641,10.32
			C75.593,48.853,78.287,45.043,79.433,42.165z"/>
		<path fill-rule="evenodd" clip-rule="evenodd" d="M129.833,42.646c1.463,1.576,1.734,4.344,2.879,6.24
			C133.681,45.974,131.597,42.818,129.833,42.646z"/>
		<path fill-rule="evenodd" clip-rule="evenodd" d="M140.948,52.792c0.137-0.064,0.279-0.098,0.404-0.066
			C141.22,52.737,141.083,52.771,140.948,52.792c-0.377,0.176-0.689,0.598-0.316,0.652c2.639-0.729,3.861-4.58,2.641-7.68
			c0.24,7.121-6.381,7.379-10.801,9.84C135.343,54.899,138.345,53.19,140.948,52.792z"/>
		<path fill-rule="evenodd" clip-rule="evenodd" d="M80.248,65.251c-0.119,0.035-0.232,0.09-0.334,0.193
			C80.021,65.384,80.132,65.317,80.248,65.251z"/>
		<path fill-rule="evenodd" clip-rule="evenodd" d="M138.952,55.845c4.176-1.736,4.545-1.863,6.48-3.359
			c1.629-1.262-1.107,0.783-1.439,0.959c-8.996,4.723-23.812,1.383-35.762,2.4c-1.484,0.127-2.548,0.652-3.839,0.48
			c-2.287-0.305-5.074-2.744-7.439-1.92c1.605,0.473,2.98,1.18,4.08,2.16c-6.244,0.562-6.475-4.887-10.561-6.48
			c-0.463,3.072,3.301,3.861,4.32,6.24c-2.598,0.201-5.322-1.773-4.561-3.361c-1.98-1.057-2.279-3.799-3.84-5.279
			c-0.814,4.107,3.338,6.574,4.561,8.641c-4.348,0.107-8.129-0.352-11.76-0.961c0.994-2.793-0.836-5.766-0.48-7.92
			c-0.619,1.9-0.248,5.654-0.48,7.68c-0.146-0.07-0.924-0.596-0.959,0c2.43,1.012,4.504,2.377,7.439,2.881
			c0.668,3.793-2.406,6.035-4.465,7.246c0.689-0.205,1.621,0.537,2.305-0.047c2.535-1.736,5.783-4.402,8.881-5.279
			c3.508-0.992,9.059-0.053,13.199-0.24c10.455-0.475,20.648,1.383,27.121,4.561c2.955,1.451,5.365,3.783,8.398,4.32
			c-3.299-2.061-6.895-3.826-10.08-6c0.986,0.158,1.498,1.16,2.641,0.479c0.965-1.535-0.629-3.154-0.48-3.84
			c4.004-0.77,9.057-1.9,13.682-2.16c2.012-0.111,4.072,0.418,4.559-0.959C146.806,56.548,142.466,56.263,138.952,55.845z"/>
		<path fill-rule="evenodd" clip-rule="evenodd" d="M73.673,52.005c-0.285-0.756-0.27-1.811-0.721-2.4
			C72.99,50.386,73.474,52.95,73.673,52.005z"/>
		<path fill-rule="evenodd" clip-rule="evenodd" d="M160.552,47.444c-1.482,1.236-3.008,2.432-5.039,3.121
			c1.297-1.393,4.908-4.605,2.4-6.721c-0.309,2.256-1.66,4.738-3.121,5.041c0.613-1.252,1.023-3.632,0.48-5.281
			c-1.363-0.234-1.42,1.818-2.4,1.201c-0.053-0.908,0.244-2.164-0.721-2.16c0.32,2.508-0.561,4.998,0,6.959
			c0.678,0.322,0.602-1.271,0.961-0.48c0,0.4,0,0.801,0,1.201c-0.482,0.557-1.836,0.244-1.92,1.199
			C154.481,52.364,160.952,51.095,160.552,47.444z"/>
	</g>
</g>
</svg>
</svg>