<?xml version="1.0" encoding="utf-8"?>
<!-- Generator: Adobe Illustrator 15.0.0, SVG Export Plug-In . SVG Version: 6.00 Build 0)  -->
<!DOCTYPE svg PUBLIC "-//W3C//DTD SVG 1.1//EN" "http://www.w3.org/Graphics/SVG/1.1/DTD/svg11.dtd">
<svg version="1.1" id="Слой_1" xmlns="http://www.w3.org/2000/svg" xmlns:xlink="http://www.w3.org/1999/xlink" x="0px" y="0px"
	 width="302.956px" height="172.561px" viewBox="0 0 302.956 172.561" enable-background="new 0 0 302.956 172.561"
	 xml:space="preserve">
<g>
	<g>
		<path fill-rule="evenodd" clip-rule="evenodd" fill="#6D6E70" d="M126.315,26.64c0.398,0,0.799,0,1.199,0
			c0.723,0.398,1.283,0.958,1.68,1.681c4.033-2.641,5.447,2.405,5.041,6.479c1.631-1.836,0.857-7.54,3.84-7.92
			c1.988-0.253,2.879,1.452,3.119,4.08c0.678,0.347,1.189-1.523,1.92-1.92c0.887-0.354,1.293,0.144,1.92,0
			c0.873-0.199,1.074-1.08,2.16-0.96c1.918,0.211,1.971,1.754,2.16,3.359c0.17,1.435-0.666,3.53,0.961,4.32
			c0.975-0.845,0.373-2.369,0.479-3.6c0.18-2.072,1.01-4.83,3.839-3.601c1.248,0.542,1.365,2.167,1.92,3.84
			c0.672,0.353,2.047-1.477,3.361-0.479c0.883-0.604,1.123-1.812,2.4-1.92c1.309-0.11,2.107,0.977,2.879,1.92
			c1.09-0.885,2.939-0.793,3.6,0.479c0.627-1.431,1.022-2.461,2.399-2.64c1.771-0.23,2.654,1.501,4.08,1.92
			c1.377-1.562,3.91-2.539,6-0.96c3.422-3.874,17.621-4.251,18.961,1.68c4.125,0.969,7.514,3.112,11.279,4.561
			c1.322,0.508,2.867,0.611,4.08,1.2c1.648,0.801,3.602,2.502,5.279,3.84c1.693,1.349,3.434,2.874,4.801,4.32
			c2.91,3.077,5.096,7.052,8.16,10.079c0.76,0.752,1.889,1.203,2.641,1.921c0.535,0.511,1.088,1.469,1.68,2.159
			c2.004,2.342,4.338,5.555,5.039,9.12c0,0.48,0,0.96,0,1.44c-0.84,5.769-0.17,10.894-1.92,15.12
			c-1.109,2.681-3.049,5.266-4.799,7.68c-0.613,0.845-0.865,1.944-1.441,2.64c-0.619,0.751-1.723,1.159-2.4,1.921
			c-0.75,0.845-0.533,2.224-1.92,2.159c-1.031,3.381-2.977,5.95-4.318,8.88c-1.328,2.896-2.207,6.143-4.08,9.12
			c-0.521,0.827-1.473,1.429-1.92,2.4c-0.672,1.457-0.959,3.795-1.201,6c-0.221,2.008-0.725,4.208-0.959,6.24
			c-0.318,2.737,0.104,7.211-2.4,7.199c-1.572-0.006-2.564-3.916-3.359-6.72c-1.205-4.241-1.951-7.128-1.682-11.52
			c0.254-4.107,1.463-8.7,2.16-13.44c1.133-7.685,2.777-15.755,1.92-24.96c-0.729-7.824-5.068-13.106-8.639-18.24
			c-3.031,0.23-4.99-0.693-7.201-1.68c-1.119-0.5-2.232-1.456-3.359-1.68c-3.6-0.714-10.316,0.818-13.68,1.68
			c-1.551,0.396-2.951,0.436-4.32,0.72c-1.619,0.337-2.967,1.098-4.561,1.2c-7.282,0.47-16.575-1.095-19.919-5.04
			c-4.745,1.281-9.366,2.619-14.159,4.08c-1.428,0.436-2.85,1.381-4.32,1.68c-3.371,0.687-7.361,0.344-11.279,0.96
			c-5.852,0.922-10.74,2-18,1.681c-1.797-0.079-3.828-0.733-5.52-0.48c-1.207,0.181-4.207,1.9-5.76,2.641
			c-2.979,1.417-4.738,3.286-8.4,3.84c-0.506,3.468-3.061,6.773-3.6,11.04c-1.092,8.627,1.934,18.867-2.641,24.239
			c0.232,13.28,0.893,29.047-6.48,35.521c-0.24,0-0.48,0-0.721,0c-0.203-0.356-0.771-0.348-1.199-0.48
			c-0.758-3.476,1.066-7.18,1.68-11.04c0.936-5.873,1.201-10.972,1.201-18c0-1.853,0.385-4.254,0-5.76
			c-0.26-1.008-1.654-1.823-2.16-3.12c-0.402-1.031-0.133-2.463-0.48-3.359c-0.432-1.113-1.818-1.826-2.4-2.88
			c-1.473-2.675-1.604-6.917-2.4-10.561c-0.799-3.663-2.146-7.469-2.398-10.56c-0.135-1.645,0.572-3.657,0.238-5.28
			c-0.381-1.861-3.602-3.636-3.359-6.72c0-0.88,0-1.761,0-2.641c1.281-5.979,6.855-9.578,11.041-13.439
			c3.426-3.163,7.184-5.946,11.039-7.92c5.557-2.844,12.023-4.81,18.24-7.2c6.506-2.502,13.287-5.254,20.16-5.521
			C123.21,29.936,124.128,27.655,126.315,26.64z M128.476,37.68c0.807,0.306,0.992-1.217,0.479-1.439
			C128.741,36.667,128.284,36.85,128.476,37.68z"/>
	</g>
	<g>
		<path fill-rule="evenodd" clip-rule="evenodd" d="M121.478,48.24c0.859,0.047,1.316-1.548,0.961-1.92
			C122.188,47.03,121.224,47.025,121.478,48.24z"/>
		<path fill-rule="evenodd" clip-rule="evenodd" d="M119.798,51.121c0.236-1.051,2.049-1.785,1.201-3.12
			C120.769,49.055,119.056,49.889,119.798,51.121z"/>
		<path fill-rule="evenodd" clip-rule="evenodd" d="M167.078,52.32c-0.035-0.926,0.188-2.107-0.48-2.399
			C166.725,50.752,166.24,52.197,167.078,52.32z"/>
		<path fill-rule="evenodd" clip-rule="evenodd" d="M114.999,51.36c-0.059,0.755-1.559,1.307-0.721,2.16
			C114.462,52.957,116.384,51.936,114.999,51.36z"/>
		<path fill-rule="evenodd" clip-rule="evenodd" d="M117.878,52.32c-0.701,1.059-1.822,1.698-2.16,3.12
			c1.438-0.083,1.646-1.394,2.881-1.68C118.593,53.045,118.62,52.297,117.878,52.32z"/>
		<path fill-rule="evenodd" clip-rule="evenodd" d="M67.958,60.96c-0.277,0.36-0.842,1.011,0,1.2
			C67.646,61.564,68.663,61.165,67.958,60.96z"/>
		<path fill-rule="evenodd" clip-rule="evenodd" d="M226.837,62.64c0.16,0,0.32,0,0.479,0c0-0.16,0-0.32,0-0.479
			c-0.158,0-0.318,0-0.479,0C226.837,62.32,226.837,62.48,226.837,62.64z"/>
		<path fill-rule="evenodd" clip-rule="evenodd" d="M142.118,67.44c0.211,0.669,0.299,1.461,0.721,1.92
			C143.69,68.745,143.157,67.5,142.118,67.44z"/>
		<path fill-rule="evenodd" clip-rule="evenodd" d="M229.716,69.36c-0.008-0.79,0.1-1.698-0.719-1.68
			C228.942,68.534,229.159,69.119,229.716,69.36z"/>
		<path fill-rule="evenodd" clip-rule="evenodd" d="M232.837,69.84c0.057-0.343,0.395-0.405,0.479-0.72
			C232.821,68.91,232.239,69.743,232.837,69.84z"/>
		<path fill-rule="evenodd" clip-rule="evenodd" d="M72.999,70.32c-0.461,1.178,0.232,3.072,0.959,3.841
			C74.058,73.222,73.993,70.907,72.999,70.32z"/>
		<path fill-rule="evenodd" clip-rule="evenodd" d="M74.438,81.84c-0.723-2.879-2.023-5.177-2.641-8.16
			C71.478,77.601,73.071,79.607,74.438,81.84z"/>
		<path fill-rule="evenodd" clip-rule="evenodd" d="M75.638,139.68c-0.24,0-0.48,0-0.719,0c0.018,1.928-1.436,7.336,1.199,7.44
			C75.548,145.05,76.245,141.714,75.638,139.68z"/>
		<path fill-rule="evenodd" clip-rule="evenodd" d="M168.758,64.32c0.197-0.678-0.338-0.621-0.24-1.199
			c-4.184-1.897-8.549-3.611-11.041-7.2c-0.609-0.27-1.17-0.59-1.68-0.96c-0.605-1.715-1.391-3.249-2.4-4.561
			c-1.394-6.604-1.667-14.331-2.157-21.84c-1.254,0.187-0.84,2.04-2.641,1.68c-0.033-1.167,0.295-2.695-0.961-2.64
			c-1.109,0.649-1.188,2.332-2.398,2.88c0.186-1.465-0.438-2.124-1.441-2.399c-1.158,0.285-1.756,2.396-2.639,2.159
			c0.789-1.351,0.145-3.516-1.682-3.6c-0.959,0.64-1.576,1.622-2.16,2.64c0.104,1.223-0.105,2.135-0.719,2.641
			c-0.533-0.508-0.506-1.574-1.68-1.44c-1.557,0.527-2.561,2.877-3.84,2.88c0.904-0.812,2.348-3.706,0.719-4.8
			c0.438-0.762,1.113-1.286,0.961-2.64c-0.283-0.116-0.545-0.256-0.721-0.48c-0.16,0-0.32,0-0.48,0
			c-1.623,1.375-2.746,2.987-4.08,4.561c-1.684,1.986-3.506,4.105-5.279,5.76c-1,0.933-2.186,2.067-3.119,2.16
			c0.932-1.308,2.258-2.223,3.6-3.12c-0.91-2.271,2.439-3.211,0.719-5.521c0.467-0.714,2.795-1.922,1.92-2.399
			c-2.707,0.262-3.939,2.976-6.238,2.88c-0.527,0.434-0.918,1.002-1.682,1.2c0.041-0.601-0.367-0.752-0.719-0.96
			c-3.031,1.209-5.051,3.429-7.92,4.8c-0.334-0.307-0.148-1.133-0.48-1.44c-1.512,0.575-3.389,1.771-4.801,1.681
			c-0.779,2.499-3.467,3.092-5.279,4.56c0.518-0.682,1.191-1.208,1.439-2.16c1.455-0.866,2.922-1.719,4.08-2.88
			c-1.91-0.588-2.768,1.841-4.561,2.16c0.039-1.034,0.625-2.097-0.479-2.4c-0.842,0.383-0.795,1.48-1.441,2.16
			c-0.629,0.662-1.674,0.883-2.398,1.44c-0.738,0.565-1.307,1.505-2.16,2.16c-1.77,1.355-3.303,2.512-4.801,3.84
			c-1.586,1.406-2.711,2.873-4.08,4.08c-0.789,0.696-1.848,0.994-2.641,1.68c-1.621,1.402-2.771,3.328-4.318,4.8
			c-1.254,1.19-2.602,2.121-3.84,3.36c-1.201,1.2-2.711,2.07-3.602,3.6c0.479,0.241,0.379,1.062,1.201,0.96
			c2.357-1.482,4.014-3.666,6.719-4.8c0.354,1.632-0.762,1.798-1.439,2.4c-0.826,1.413-1.506,2.974-3.119,3.6
			c-0.084-0.864-0.367-1.156,0-1.92c-1.215,0.35-1.027,2.399-2.881,1.44c-0.102,0.821,0.719,0.721,0.961,1.199
			c-1.08,0.83-2.041,4.742-1.201,6c-0.471-1.831,0.932-1.789,1.201-2.88c0.754,0.115,0.938-0.342,1.439-0.479
			c0.131,0.349-0.281,1.24,0.24,1.2c1.273-3.687,3.766-6.154,6.24-8.641c-0.049-0.912-0.213-1.707-0.48-2.399
			c1.594-1.927,3.656-3.385,6-4.561c-0.227,1.373-1.76,1.44-1.68,3.12c5.35,0.304,8.053-5.382,12-6.48
			c-1.438,1.442-3.043,2.719-4.561,4.08c-3.416,1.155-5.223,3.967-7.68,6.24c-2,1.85-4.066,3.522-5.041,5.521
			c0.818-1.424,1.297,0.694,2.16,0.72c1.375-2.593,4.375-3.948,6.48-6c1.666-1.623,2.408-4.21,4.32-5.04
			c-0.68,1.004-2.191,2.444-2.16,3.36c0.504-0.286,5.371-5.497,2.641-3.36c3.266-3.134,6.775-7.303,9.84-9.84
			c-0.18,0.664-0.084,2.49,0.24,2.88c-0.453-0.026-0.168-0.794-0.721-0.72c-1.705,1.896-4.684,3.795-5.52,5.76
			c1.629-1.093,3.465-3.253,4.799-3.84c0.455,0.783-0.523,1.479-0.959,1.92c-0.561,0.567-1.377,1.215-1.92,1.68
			c-3.922,3.362-7.988,6.616-10.801,10.8c3.143,1.339,1.777,7.183,5.041,8.4c-4.162,0.161-2.846-5.154-4.801-7.2
			c-1.361-0.16-1.861,0.539-2.879,0.72c0.324,1.998,1.512,4.405,1.199,6.24c-1.729-0.992-0.896-4.543-2.641-5.52
			c-0.76,2.939,2.314,5.35,1.92,7.92c-2.291-0.989-1.689-4.871-3.6-6.24c-0.637,2.075,2.752,4.518,1.68,6.24
			c-2.668-1.651-2.264-6.376-4.559-8.4c-0.285,3.18,2.213,5.613,3.119,8.4c-2.879-0.045-2.678-5.131-4.561-6.96
			c-0.004,2.02,0.387,4.957,1.201,6.96c0.381,0.938,1.547,1.543,1.199,2.399c-3.105-0.734-2.195-5.483-3.84-7.68
			c-1.236,2.141,0.955,4.297,0.959,6.72c0.553-0.09,0.838,1.14,0.721,2.4c0.516,0.604,1.203,1.037,0.961,2.4
			c-0.729,0.007-0.232-1.208-0.961-1.2c-1.129,0.951,0.328,4.487-1.199,5.04c-0.412,0.041-0.943-1.361-0.961-0.24
			c0.061,1.403,2.039,1.125,2.4,0.96c0.506,4.055,2.023,8.375,2.4,11.76c-1.354-3.315-3.611-6.319-5.281-9.12
			c-0.568-0.954-0.811-2.771-2.398-2.64c-1.078,1.183,0.221,2.617,0.719,3.6c4.367,8.593,6.09,19.737,11.76,26.641
			c-3.971-3.463-7.27-8.782-10.08-13.2c-1.826-2.875-3.779-6.54-4.08-10.32c-0.176-2.228-0.621-3.557-0.719-5.279
			c-0.229-4.048,1.275-9.67-1.68-12.24c-0.67-0.212-1.461-0.3-1.92-0.721c-0.762-3.238-1.834-6.166-3.121-8.88
			c0.953-1.055,1.201-2.516,1.92-3.6c3.523-5.305,10.482-7.757,15.121-11.76c1.629-1.406,3.486-2.7,5.279-3.84
			c-0.264,0.553-1.941,1.924-1.439,1.68c2.654-2.379,6.025-4.729,8.639-6.96c0.834-0.711,2.115-1.551,2.16-2.641
			c-0.896-0.663-2.15-0.021-2.398,0.721c-8.047,3.074-14.695,7.545-21.602,11.76c0,0.48,0,0.96,0,1.44
			c-3.436,3.016-7.02,6.378-8.639,10.8c-0.551,1.501-0.969,3.056-1.92,4.56c0,0.4,0,0.8,0,1.2c2.23,1.562,2.316,4.687,3.6,8.16
			c0.887,2.402,2.156,4.938,2.4,7.2c0.221,2.053-0.225,4.244,0,6.239c0.133,1.201,0.699,2.264,0.959,3.36
			c1.291,5.424,3.74,10.084,6.721,13.44c-0.139,0.501-0.596,0.685-0.48,1.439c1.676,2.115,3.504,4.645,5.041,7.44
			c1.574,2.868,4.055,6.808,4.318,9.6c2.416,0.233,1.576,3.429,1.682,4.8c2.539-0.374,1.062-3.526,0.959-5.279
			c-0.156-2.616,0.314-5.42-1.199-6.721c0.586,0.276,1.162,1.357,1.92,0.721c0.629-1.656-0.854-2.97-1.201-4.561
			c-0.221-1.011,0.072-2.285-0.24-3.359c-0.26-0.897-1.203-1.636-1.68-2.641c-1.584-3.338-2.809-6.653-3.84-9.359
			c1.83,3.129,4.236,5.684,5.52,9.359c-0.764-4.057,0.945-7.427,0.961-10.08c0.012-2.063-1.141-3.78-1.199-6
			c0.932,0.348,1.092,1.468,1.92,1.92c0.031-3.182,2.471-5.187,2.158-7.92c2.258-0.728,1.756-3.378,2.4-5.279
			c0.463,0.097,0.189,0.93,0.961,0.72c0.24-0.32,0.395-0.725,0.719-0.96c-1.035-3.524-4.838-4.281-5.52-8.16
			c2.322,2.158,4.92,4.041,7.201,6.24c1.523-0.434,0.471-2.62,0.479-2.641c0.299-0.744,1.381-0.818,1.682-1.68
			c0.701,0.747,1.477,0.648,2.639,0.48c1.619-2.411-1.836-4.559-1.92-6c2.527,1.432,5.188,4.886,8.641,3.84
			c-0.018-0.418,0.053-0.747,0.24-0.96c-0.447-1.078-2.547-1.768-2.4-2.641c2.268,0.709,4.49,2.688,6.959,2.4
			c0.814-0.681-0.662-1.915-0.238-2.16c1.664,0.937,2.383,3.506,4.32,3.6c1.537,0.075,2.389-0.806,2.398-2.159
			c0.016-2.134-3.668-3.608-3.84-5.521c1.951,1.321,2.746,3.438,4.801,4.08c0.594,0.186,0.883-0.562,1.439-0.479
			c0.24,0.035,1.34,1.077,1.92,1.439c0.791,0.494,1.342,1.163,2.4,1.2c0.783-0.257,0.893-1.187,1.199-1.92
			c0.324,0.075,0.459,0.342,0.961,0.24c-0.1-1.14,1.232-0.848,1.92-1.2c-0.156,1.036,0.414,1.345,0.721,1.92
			c2.068,0.714,3.213-1.688,4.799-0.24c0.645-0.315,0.064-1.854,0.961-1.92c-0.258,1.457,0.717,1.682,1.199,2.4
			c3.287,0.118,5.266-2.187,7.439-3.36c0.229-0.123,0.354,0.2,0.721,0c2.168-1.183,3.564-2.163,5.279-3.36
			c2.893,1.18,4.445-0.973,5.041-2.88c2.292,2.553,7.831,7.373,11.999,6c0.518-0.202-0.09-1.529,0.48-1.68
			c3.08,1.168,7.249,2.497,10.798,2.399C174.622,65.174,170.95,65.486,168.758,64.32z M71.558,65.76
			c-0.369-0.386,0.178-1.891,1.201-1.68C72.726,65.008,71.784,65.027,71.558,65.76z M75.397,57.121
			c-0.65-0.217,0.549-0.537,0.48-0.96C76.722,56.571,75.276,56.644,75.397,57.121z M76.599,55.92
			c0.023-0.617,0.936-0.344,0.959-0.96C77.997,55.11,77.144,55.962,76.599,55.92z M78.519,87.121c0.402-0.944,1.043,1.764,1.92,1.92
			c0.484,2.715,1.271,5.128,1.68,7.92C80.132,94.466,80.069,90.049,78.519,87.121z M130.599,30.96
			c-0.305,0.735-0.818,1.263-1.201,1.92C129.187,32.574,129.538,30.792,130.599,30.96z M128.679,33.6
			c-0.834,1.209-4.23,4.348-5.76,6.48c-0.477,0.399-0.307-0.022-0.961,0c-0.986,0.773-1.486,2.032-2.4,2.88
			C120.487,38.689,125.448,36.371,128.679,33.6z M118.118,42c-0.242,0.958-1.439,0.961-1.92,1.68
			C115.794,43.18,117.761,41.739,118.118,42z M117.878,39.6c-2.156,3.204-7.096,5.704-10.561,8.4
			C109.823,45.144,114.542,42.424,117.878,39.6z M109.478,48c1.449-0.633,2.473-1.688,3.842-2.4
			c-0.908,1.975-3.941,3.898-6.002,5.521c-0.119-0.137,0.33-1.738,0.721-2.16c0.598,0.036,0.07,0.812,0,0.96
			C108.882,49.644,109.562,49.204,109.478,48z M115.958,45.6c-0.58,1.1-1.912,1.448-2.639,2.4
			C113.302,47.257,114.89,46.056,115.958,45.6z M110.438,38.161c0.729,0.515-0.846,0.735-0.961,1.199
			C108.835,38.932,110.409,38.711,110.438,38.161z M94.118,41.041c-0.068,1.056-1.914,2.401-2.881,3.359
			C91.343,43.38,93.415,42.26,94.118,41.041z M88.071,46.936c0.266-0.188,0.803-0.573,0.527-0.376
			C88.335,46.748,88.173,46.864,88.071,46.936C87.927,47.041,87.87,47.08,88.071,46.936z M86.198,48.72
			c-0.576-0.514,1.16-0.747,1.199-1.44C87.856,47.676,86.509,48.297,86.198,48.72z M98.679,43.44
			c-1.752,2.152-4.164,3.359-6.721,5.04c-1.934,1.271-3.283,3.283-5.52,4.08c2.754-3.332,6.857-5.407,10.32-8.16
			c1.082-0.86,1.982-1.974,3.119-2.88c0.996-0.794,2.332-1.327,3.359-2.16c0.996-0.807,1.678-1.963,2.641-2.64
			c1.273-0.895,3.068-1.657,4.561-2.4c1.396-0.694,3.033-1.778,4.561-1.92c-1.078,1.389-2.939,3.052-4.801,2.88
			c-1.867,1.037-3.438,2.433-5.279,3.601C102.737,40.263,100.306,41.439,98.679,43.44z M105.638,41.52
			c-0.98,0.939-1.896,1.943-3.6,2.16c0.781-0.898,2.377-0.983,2.641-2.4C104.892,41.466,105.22,41.539,105.638,41.52z
			 M105.157,47.28c-0.064,1.034-1.65,1.475-2.639,2.16s-1.871,1.923-3.121,1.92C100.628,49.31,103.671,49.073,105.157,47.28z
			 M93.638,61.92c-0.971,0.092-1.104-0.655-1.68-0.96c-0.703,0.576-2.023,0.536-2.4,1.439c1.127,1.753,2.525,3.235,3.6,5.04
			c-1.525-0.555-2.66-3.577-4.078-5.04c1.02-1.163,2.523-2.055,3.84-3.12c1.236-1.002,2.404-2.552,3.84-2.64
			C96.11,58.792,94.56,60.042,93.638,61.92z M102.278,58.56c-1.455,0.236-4.096,2.777-2.881,5.04
			c-1.057,0.491-1.662-1.531-3.119-1.439c2.258-2.382,4.031-5.249,6.48-7.44c-0.572-0.242-1.49,1.224-2.4,1.44
			c-1.021-0.34-2.092-0.63-2.4-1.681c-1.08,0.761-1.809,1.871-2.879,2.641c-1.219-0.213-1.486-0.208-2.16,0.479
			c-0.434,0.246,1.277-1.195,1.199-2.16c1.842-0.957,2.949-2.65,4.801-3.6c-0.314,1.033,0.68,0.759,0.959,1.2
			c0.834,0.564,1.406-1.21,1.92-1.2c0.547,0.01,0.85,1.033,1.201,0.96c0.934-0.196,1.143-0.844,2.158-1.68
			c0.041,0.725-0.934,2.528-2.398,1.92c-0.135,1.333,0.715,1.684,1.92,1.68c-0.547,0.65-0.928,0.749-1.92,0.479
			c-0.361,0.39-0.361,1.771,0,2.16c2.955-0.362,4.188-3.357,6.24-4.8c0.646-0.455,1.535-0.546,2.16-0.96
			c2.18-1.447,3.699-3.509,5.76-5.04c-0.402,1.44-3.033,2.727-3.84,4.561c1.592-0.119,2.541-2.875,4.08-3.841
			c-0.1-0.578,0.438-0.521,0.238-1.199c0.82-0.381,1.582-1.829,2.4-1.44c-0.803,2.052-2.91,3.077-4.32,4.56
			c-1.334,1.405-2.414,3.011-3.84,4.32c-0.43,0.03-0.506-0.294-0.959-0.24c-2.682,3.24-6.084,5.757-9.361,8.4
			C100.808,60.762,102.179,59.667,102.278,58.56z M104.679,64.32c-1.221-0.14-1.854-0.866-2.881-1.199
			c0.633-1.049,2.115-1.245,2.641-2.4C104.991,61.447,104.522,63.196,104.679,64.32z M106.599,65.041
			c-0.912,0.192-0.307-1.135-0.48-1.681C106.294,63.764,107.116,64.738,106.599,65.041z M124.599,62.4
			c-0.73-0.149-1.227-0.533-1.201-1.439c0.898,0.021,0.686,0.269,1.441,0c-0.039,0.278,0.053,0.427,0.24,0.479
			C125.253,62.095,124.601,61.923,124.599,62.4z M126.999,61.68c-0.246-0.419,0.539-1.851,1.68-1.68
			C128.856,61.299,127.194,60.756,126.999,61.68z M130.358,53.28c-1.752,2.089-2.383,5.297-4.32,7.2
			c-0.938-0.826-0.092-1.592,0.721-1.92c0.615-2.023,1.67-3.609,2.639-5.28c-0.674-0.108-2.07,1.124-2.879,1.681
			c-0.893,0.252-0.471-0.81-0.961-0.96c-0.295,0.283-1.186,1.188-0.479,1.68c-1.129,1.297-2.559,1.773-3.602,2.64
			c-0.029-1.951,2.025-3.894,2.881-5.76c0.312,1.197-1.266,2.57-1.68,3.84c1.209-0.553,2.352-3.247,3.359-4.8
			c-0.855-0.681-1.219,0.735-2.16,0.72c0.338-0.702,0.646-1.435,0.48-2.64c-1.264,0.896-1.588,2.732-2.641,3.84
			c-0.15,0.952,0.914,0.688,0.721,1.68c-0.648,0.671-0.43-0.586-0.961-0.72c-0.625,0.494-0.871,1.369-1.68,1.681
			c-1.07-0.489,0.5-1.08,0.721-1.44c0.996-1.631,1.904-4.188,2.879-6c-1.387,0.914-2.566,3.304-3.84,5.52
			c-0.262,0.458-0.916,1.074-0.959,1.2c-0.084,0.252,0.461,0.381,0.48,0.48c0.121,0.637-0.564,0.651-0.48,1.2
			c0.203,1.328,1.518,2.877,2.4,4.079c0.584,0.798,2.207,1.917,1.199,3.12c-2.227-2.412-3.195-6.085-5.279-8.64
			c-0.5,0.141-0.775,0.504-1.201,0.72c0.387,4.215,3.578,7.606,5.76,10.32c-0.934-0.061-1.934-1.093-2.639-1.92
			c-1.295-1.52-2.332-3.651-3.84-4.8c-0.217-0.984-0.734-1.666-1.201-2.4c-0.459,0.501-0.854,1.065-1.68,1.2
			c-0.598,0.037-0.742-0.377-1.199-0.48c-0.213-2.052,1.432-2.248,1.92-3.6c-1.236-0.215-1.463,1.523-2.16,2.4
			c-0.904,1.136-2.125,2.373-3.6,2.64c-0.107-0.214-0.211-0.43-0.48-0.48c0-1.086,0.748-2.055,1.439-2.64
			c0.406-0.345,0.395,0.145,0.721,0c0.686-0.305,1.758-1.182,2.4-1.68c1.678-1.303,3.143-3.078,4.559-4.561
			c0.445,0.036,0.148,0.812,0.48,0.96c0.707-0.732,1.881-1,1.68-2.64c1.215,0.255,1.211-0.71,1.92-0.96
			c-0.074-0.326-0.6-0.199-0.959-0.24c0.635-0.964,1.756-1.442,1.92-2.88c0.688-0.047,1.309-0.03,1.199,0.72
			c0.566-0.074,0.447-0.833,1.201-0.72c0.996,0.283,1.289,1.27,2.158,1.68c2.592-1.249,3.914-3.767,5.762-5.76
			c-0.91,3.011-3.984,5.937-5.281,9.36c1.988,0.665,2.9-1.709,3.84-2.88c0.09-0.408-0.186-0.453-0.479-0.48
			c0.578-0.86,0.738-2.14,1.92-2.399c0.203,3.712,0.324,6.438,0.479,9.84C130.993,53.926,131.112,53.167,130.358,53.28z
			 M120.999,57.6c-0.529-0.19-0.312-1.128-0.961-1.2C120.392,55.809,121.8,56.986,120.999,57.6z M133.239,57.121
			c-0.107-0.214-0.211-0.43-0.48-0.48c0.027-0.853,0.887-0.872,0.719-1.92C134.312,55.104,134.552,57.055,133.239,57.121z
			 M135.878,62.4c0.105-0.295,0.307-0.492,0.721-0.479C136.493,62.215,136.292,62.413,135.878,62.4z M139.239,59.76
			c-0.277,0.776-0.273-0.645-0.24-0.96C139.274,58.024,139.271,59.445,139.239,59.76z M139.958,53.52
			c-0.871-0.01-0.771-0.988-1.439-1.2c-0.561,0.08-1.035,0.246-1.201,0.721c-0.223-0.844-1.779-2.276-2.639-0.96
			c-0.711-0.349,0.316-0.937,0-1.681c3.068,2.144,3.799-3.516,5.039-5.52C140.229,47.219,139.866,51.542,139.958,53.52z
			 M151.478,56.88c-1.57,0.762,0.016,4.11-2.398,4.56c0.322-1.448,2.336-3.628,0.719-4.8c-1.297-0.056-1.021,1.588-2.16,0.48
			c-1.549,1.41-3.393,2.526-5.039,3.84c-0.01-1.317,2.93-2.954,1.92-5.28c-1.686,0.234-1.857,1.982-2.641,3.12
			c-0.268-0.622-1.229-1.797-1.199-1.92c0.326-1.514,2.861-0.818,2.639-2.88c-0.025-0.613-0.803-0.477-1.439-0.48
			c0-0.96,0-1.92,0-2.88c0.756,0.115,0.939-0.342,1.439-0.479c1.107-3.774,0.615-9.147,0.721-13.921
			c0.053-1.012-1.711-0.207-1.439-1.439c-0.656-0.09-1.744,1.451-2.4,2.16c0.059,1.301,0.385,2.335,0.24,3.84
			c-0.717-0.287-0.816-0.066-1.439,0.24c-0.037,1.563-0.684,2.517-0.961,3.84c-0.17-1.534,0.496-4.303,0.721-6.24
			c-2.344,0.537-3.344,4.497-3.84,7.68c-0.758,0.043-1.432,0.169-1.441,0.96c-0.541-0.179-0.094-1.346-0.238-1.92
			c-0.086-0.336-0.424-0.021-0.48,0.24c-0.572-0.708,0.145-2.705-1.441-2.4c0.996-1.884,2.311-3.45,2.641-6
			c1.295-1.745,3.82-2.259,4.801-4.319c0.629,0.958-1.078,1.634-1.201,2.64c2.158,1.916,4.918-1.15,5.76-2.88
			c0.695,0.399-0.85,1.304,0,1.92c2.281-0.521,2.189-3.411,4.08-4.32c0.43,1.487-0.301,3.023-0.479,4.561
			c-0.326,2.807-0.213,5.642-0.24,8.399c-0.027,2.771-1.129,5.694,0.48,7.921c0.766,0.205,0.742-0.378,1.199-0.48
			c0.334-5.905,1.625-10.855,1.92-16.8c0.82,4.221-0.475,10.556,0.721,14.399c-0.502,0.593-1.146-0.691-1.92,0
			c-0.186,1.065,0.793,0.967,1.199,1.44c1.117,2.483,2.217,4.982,3.358,7.44C152.986,57.047,152.228,56.517,151.478,56.88z
			 M142.118,44.88c0.371-0.733,0.211,1.041,0.24,1.439C141.987,47.054,142.147,45.279,142.118,44.88z M161.797,63.6
			c0.33,0.472,1.447,0.153,1.441,0.96C162.432,64.565,161.637,64.56,161.797,63.6z"/>
		<path fill-rule="evenodd" clip-rule="evenodd" d="M234.517,51.6c-0.574-0.146-1.096-0.345-1.92-0.24
			c-0.5-1.141-1.646-3.354-3.121-4.8c-1.516-1.485-3.814-3.675-5.76-1.92c3.918,4.243,7.482,8.839,9.84,14.64
			c-2.473-4.039-4.807-8.487-8.398-11.76c-1.158-1.054-2.656-1.747-3.842-2.88c-3.98-3.804-6.441-7.18-11.76-10.08
			c-3.111-1.697-5.932-2.632-9.84-4.08c-2.76-1.022-4.615-2.372-8.16-1.68c0.705,1.937,2.4,2.881,3.84,4.08
			c-0.473,0.405-1.59,0.169-1.199,1.439c-0.34-0.546-1.98-0.874-1.68,0.48c-1.117-1.684-2.709-2.891-4.32-4.08
			c0.068-0.812,0.383-1.378,0.24-2.4c-0.34-0.7-0.865-1.216-1.68-1.439c-0.488,0.071-0.641,0.48-0.961,0.72
			c-0.131,2.212,1.852,2.309,2.16,4.08c0.992,1.088,2.783,1.378,3.121,3.12c-1.344-0.338-1.654-1.707-2.641-2.4
			c-0.064,0.864,0.443,1.157,0.48,1.92c-2.537-0.943-4.494-6.421-8.881-3.6c0.404,1.265,2.158,1.018,3.121,1.68
			c1.1,0.758,1.639,2.698,2.879,4.32c1.096,1.432,2.373,2.62,3.359,3.84c1.891,2.337,4.16,6.095,5.281,9.12
			c0.836,2.258-0.291,6.285,0.48,9.12c-0.678-0.966-5.916-7.578-6.961-3.36c-0.363,1.464,1.812,2.913,2.641,4.08
			c1.137,1.602,1.691,2.805,2.639,4.08c-1.217,0.061-1.797-1.33-2.639-2.16c-1.453-1.429-3.34-2.863-4.32-5.04
			c-0.396-0.878-0.375-1.961-0.721-2.88c-0.291-0.774-0.965-1.348-1.199-2.16c-0.748-2.583-0.221-5.494-1.92-7.68
			c0.895,0.096,1.408-0.191,1.439-0.96c-0.961-2.958-4.502-3.337-5.279-6.48c-0.848-0.464-1.074,0.113-1.92,0.24
			c-0.512-0.929-1.133-1.747-1.92-2.399c2.676,1.003,6.148,3.29,7.92,6c0.734,0.146,1.25,0.509,1.92,0.72
			c0.83,1.73,0.844,4.275,2.4,5.28c1.4-0.469,0.5-2.24,0.238-3.12c-0.318-1.077-1.152-2.088-1.439-2.88
			c-0.295-0.819-0.178-1.697-0.48-2.4c-1.164-2.712-3.586-4.517-5.279-6c-1.168-0.147-1.232-0.147-2.4,0
			c-1.518-0.924-4.959-3.535-6.719-1.2c1.096,2.424,2.326,4.714,4.559,6c-1.811,1.297,1.971,3.454,0.721,4.8
			c-1.584-0.131-1.496-2.47-2.16-3.84c-0.391-0.807-1.289-1.385-1.68-2.16c-0.445-0.882,0.053-2.011-0.961-2.399
			c-0.494,0.065-0.225,0.894-0.719,0.96c0.246,1.913,1.07,3.249,2.16,4.32c-0.035,2.595,1.85,3.269,2.16,5.52
			c-2.119-1.561-2.975-4.387-4.801-6.24c0.869-0.222,1.404,1.952,2.4,2.4c-1.816-3.624-3.896-6.984-6.72-9.601
			c0.945,2.016,1.789,4.132,2.641,6.24c-1.027,0.062-0.9-3.097-2.4-3.359c0.188-0.989-0.369-1.232-0.24-2.16
			c-0.73-0.348-1.227-0.042-1.199,0.96c-0.783-0.417-0.605-1.795-1.441-2.16c-0.998,2.339,2.395,3.537,2.881,5.28
			c0.967,3.468,3.685,6.116,4.8,9.359c-2.062-1.976-4.013-6.371-6.479-8.88c-0.092-1.27-0.846-1.874-1.201-2.88
			c-2.213-0.399-2.328-0.824-3.84,0.48c-0.092-0.867-0.318-1.602-0.719-2.16c-0.98,0.175-0.307,1.494-0.24,1.92
			c0.742,4.715,3.158,9.686,4.799,13.68c-0.15-2.49-1.828-5.529-2.639-8.16c0.801,0.371,1.072,1.666,1.439,2.641
			c1.062,2.813,2.357,6.456,3.119,9.84c0.543-0.179,0.096-1.347,0.24-1.92c0.971,0.795,1.379-0.576,2.641-0.24
			c0.449,0.671,0.674,1.565,0.961,2.4c0.851,0.907,2.015,1.502,2.878,2.399c1.369-0.338,1.02-2.658,0.48-3.84
			c0.572,0.469,0.652,1.427,1.92,1.2c0.631-0.807-0.303-1.652-0.721-2.16c0.707-0.533,0.854,1.537,1.92,1.44
			c0.658-0.07-0.758-1.27,0-1.44c1.473-0.725,0.906,1.102,2.16,1.2c0.541-0.48-0.227-1.681-0.48-2.16
			c1.615,0.229,1.387,4.372,3.602,4.8c0.609-0.987-0.348-2.613-0.961-3.84c-0.621-1.245-1.604-2.436-2.16-3.36
			c-0.086-0.82,1.074-1.627,0.24-2.399c1.389,1.265,2.635,3.393,3.6,6.239c1.016,2.99,0.982,6.631,0.721,10.801
			c-1.68-0.342-3.332-1.127-5.279-2.16c-2.02-1.07-4.09-3.85-5.762-1.92c0.633,2.408,2.863,3.217,4.08,5.04
			c-5.307-0.374-10.044-3.395-13.438-6.48c-0.479,0.242-1.025,0.415-1.199,0.96c1.176,3.313,4.863,5.214,8.878,6.96
			c3.555,1.547,7.736,3.409,10.561,1.92c0.615-0.217-0.201-1.95,0.24-1.199c1.535,0.071,0.898,0.354,0.721,1.439
			c1.098,0.341,1.607,1.272,2.398,1.92c2.674,0.274,3.09-1.711,3.602-3.6c2.098,1.741,3.594,4.085,6.719,4.8
			c0.861-0.259,1.43-0.811,1.201-2.16c1.273,0.154,1.637-0.603,2.158-1.2c0.041-1.239-0.148-2.708,0.24-3.6
			c0.422,0.219,0.439,0.841,0.721,1.2c2.037-0.437,1.572,1.628,3.359,1.439c0,0.32,0,0.641,0,0.96
			c1.342,0.579,1.826,2.014,3.121,2.641c-0.133,0.987-1.539,0.7-1.92,1.439c-0.25,1.13,0.553,1.207,0.959,1.681
			c1.662-0.22,2.098-2.257,4.08-1.44c3.043-1.996,6.086-3.994,8.881-6.24c0.059,1.604-1.865,1.796-3.121,2.641
			c-1.109,0.746-2.023,2.057-3.119,2.88c-0.764,0.573-2.289,0.702-2.4,1.92c-0.018,0.977,0.887,1.033,1.92,0.96
			c-0.631,0.61-0.963,1.647-0.24,2.399c2.01,0.325,3.182-1.454,4.08-1.439c0.135,1.334-1.635,0.764-1.92,1.68
			c0.084,0.796,0.719,1.041,1.201,1.44c1.334-0.105,1.465-1.414,2.158-2.16c-0.271,2.369-3.77,3.589-4.799,6
			c0.387,1.341,2-0.431,2.16,0c0.055,0.425-0.242,1.202,0.48,0.96c-0.088,0.872-1.029,0.891-1.201,1.68
			c-0.027,0.907,0.471,1.291,1.201,1.44c1.277-0.162,1.395-1.484,2.398-1.92c0.441,1.405-1.533,2.462-2.639,3.12
			c-0.219,1.931,1.967,0.767,2.398,0.96c-0.197,1.718,0.279,2.151-0.959,3.359c0.326,1.183,2.635,2.888,3.6,1.2
			c0.293,0.938-2.053,1.303-2.16,2.641c0.271,0.448,0.285,1.155,1.201,0.96c1.1-0.42,1-2.04,2.398-2.16
			c-1.043,2.075-3.002,3.236-4.318,5.04c-0.141,1.1,0.801,1.118,1.199,1.68c-0.375,1.218-2.035,3.073-0.48,4.08
			c1.377-0.063,1.824-1.057,2.641-1.68c0.348,1.208-1.842,2.438-1.68,4.08c0.119,1.225,0.809,0.895,1.439,2.159
			c-1.203,2.239-2.449,4.547-3.6,6.96c-1.055,2.211-2.678,4.708-2.4,7.44c2.188-0.452,2.26-3.258,3.119-5.04
			c0.414-0.856,0.936-1.829,1.441-2.64c0.482-0.774,0.691-1.933,1.92-1.92c0.182,2.74-1.928,5.068-3.121,7.439
			c-1.266,2.519-2.416,5.075-3.359,7.2c-0.883-0.242-2.277,1.026-1.439,2.4c3.156-0.204,3.314-3.405,4.559-5.521
			c1.305-0.137,2.016-0.865,2.641-1.68c-0.277,2.123-2.645,4.233-3.359,6.72c-0.811,0.463-2.303,1.276-1.439,2.64
			c2.572-1.186,3.213-4.306,4.799-6.479c0.604,3.644-2.012,6.147-3.359,8.64c0.086,0.634,0.576,0.863,1.439,0.72
			c-0.562,2.756-1.01,6.506-0.48,9.601c0.031,0.917,0.793,0.077,1.201,0.479c0.613,0.606,0.186,2.351,1.439,2.4
			c0.195-0.046,0.24-0.241,0.48-0.24c0.244-3.669-0.91-8.507-0.24-12.24c0.205-1.144,1.1-2.528,1.68-3.84
			c0.555-1.254,1.1-2.509,1.68-3.6c1.689-3.175,3.426-5.431,3.84-9.6c0.574-0.902,1.715-3.403,0.48-4.561
			c-1.014,0.107-0.65,1.59-0.959,2.4c-1.646,1.903-2.918,4.619-4.32,7.199c-0.303,0.558-0.697,1.812-1.441,1.681
			c-0.885-1.282,0.99-2.907,1.682-4.08c0.826-1.402,1.621-2.938,2.398-4.32c1.598-2.835,3.754-5.19,5.521-7.92
			c2.617-4.043,5.252-8.288,7.68-12.479c1.281-2.216,2.188-4.918,3.119-7.44c-1.043-0.219-1.559,1.251-2.16,2.16
			c-0.619,0.937-1.469,2.066-1.68,3.12c0.27-4.338,2.16-7.281,2.881-12.24c0.053-0.365,0.66-1.336,0.959-1.92
			c0.047-0.972-0.059-2.526,0-3.84c0.188-4.113,1.533-11.277-2.4-9.84c-0.254,0.895,0.9,0.38,0.721,1.199
			c-0.51,2.21-0.002,5.438-0.48,7.681c0.166,0.646-0.496,0.464-0.719,0.72c0.49,0.953,0.193,2.171-0.48,2.64
			c-0.701-0.899,0.305-3.504-0.721-4.08c-2.232-0.316-2.236,1.78-3.84,1.44c-0.201,0.599-0.314,1.286-0.24,2.16
			c-3.961,2.357-6.723,5.917-9.6,9.359c-0.275-0.684,0.988-1.886,0.961-3.119c3.451-3.268,6.779-6.66,9.84-10.32
			c-2.928,2.193-6.414,5.906-9.84,8.4c-0.074-1.685,1.863-2.532,3.119-3.601c1.268-1.077,2.596-2.249,3.359-3.6
			c-2.096,1.023-3.785,2.453-5.52,3.84c0-1.053,1.346-2.039,2.4-2.88c1.064-0.85,2.92-1.314,2.641-2.641
			c-1.059,0.66-2.531,1.883-3.84,3.12c-1.221,1.154-2.32,3.203-4.08,2.88c1.76-1.762,4.111-3.912,6-6
			c0.479-0.53,2.086-1.036,0.959-1.92c-2.566,2.234-6.225,5.454-8.641,8.641c-0.455-0.943,1.176-1.859,1.201-3.12
			c0.213-0.187,0.541-0.258,0.959-0.24c1.271-2.568,3.75-3.932,5.281-6.24c-1.539,0.464-3.502,3.856-5.041,4.32
			c-0.164-3.845,3.676-3.686,4.561-6.48c-1.361,0.88-2.672,1.808-3.6,3.12c-0.619-0.181,0.174-1.774-0.721-1.68
			c-0.859-0.14-0.729,0.71-0.721,1.44c-0.84,0.679-1.693,1.346-2.158,2.399c-0.201-1.093,3.404-3.44,1.439-4.8
			c1.008-0.947,3.158-1.914,2.879-3.36c-1.402-1.229-2.494,1.326-3.6,1.92c-0.293-0.86,1.111-2.084,1.439-3.119
			c0.146-2.681-3.002-3.897-4.559-3.36c-0.539-0.261-0.949-0.651-0.961-1.44c-2.869-2.01-5.41-4.35-7.199-7.439
			c2.123,0.277,2.777,4.102,6,4.08c-0.676-1.964-2.953-2.328-3.359-4.561c-5.91-4.411-11.068-9.572-15.361-15.6
			c1.283,0.161,2.719,2.239,4.561,2.64c-0.053,1.172,1.086,1.154,1.68,1.681c5.094,6.025,11.445,10.795,16.561,16.8
			c0.514,2.446,2.123,3.796,3.119,5.76c1.957-1.607-0.879-3.658-1.199-5.28c0.973-0.063,0.996,1.376,1.439,2.16
			c0.861,1.525,1.898,3.422,3.121,4.32c0.801,0.241,0.785-0.333,0.719-0.96c0.555-0.073,0.268,0.693,0.721,0.72
			c1.719-1.816-0.602-5.597-0.961-8.16c-0.111-0.542,1.303,0.553,1.441-0.24c3.887,2.272,4.365,7.955,6,12.48
			c0.029,0.99-0.418,1.503-0.24,2.64c0.4,0,0.799,0,1.199,0c1.266-2.165-0.789-5.013,0.24-6.72c1.057,1.742,0.777,4.823,1.68,6.72
			c2.346-1.063,0.555-5.463-0.24-8.64c-0.68-2.725-1.367-5.188-2.4-6.48c1.207,0.978,2.125,2.662,3.121,4.32
			c3.537,5.887,8.938,17.468,4.801,26.64c3.541-0.379,2.248-7.669,2.879-11.76c0-0.08,0-0.16,0-0.24
			C243.112,63.165,238.778,57.419,234.517,51.6z M190.597,39.121c0.268-0.557,0.949,0.467,1.199,0.72
			C191.499,40.427,191.099,39.121,190.597,39.121z M189.396,35.28c1.078-0.431,1.828,1.528,2.641,2.16
			C191.048,37.783,190.202,35.92,189.396,35.28z M164.695,38.001c0.217,0.532,2.301,3.388,2.861,4.959
			C166.477,41.433,165.07,40.233,164.695,38.001z M168.998,45.121C168.979,44.542,170.112,47.28,168.998,45.121L168.998,45.121z
			 M169.956,46.8c-0.338-0.824,0.906,0.628,1.201,1.68C170.267,47.906,170.077,47.096,169.956,46.8z M172.116,46.081
			C172.249,45.582,173.13,48.631,172.116,46.081L172.116,46.081z M173.077,44.88c-0.043-0.427,1.104,1.869,1.68,2.399
			C174.083,47.545,173.509,45.655,173.077,44.88z M175.476,44.161c0.688,0.514,0.832,1.568,1.441,2.159
			C176.319,46.667,175.528,45.157,175.476,44.161z M210.276,71.041c1.115-0.565,1.365-1.994,2.881-2.16
			C212.462,69.866,211.952,71.037,210.276,71.041z M223.716,118.8c-0.201,2.359-2.648,4.55-3.359,7.2
			C220.298,123.381,222.819,121.263,223.716,118.8z M218.677,95.76c0.562-1.917,2.414-2.545,3.359-4.08
			C222.181,93.348,219.843,94.605,218.677,95.76z M221.077,110.161c-0.303-0.979-0.352-2.209-0.961-2.881
			c1.898-0.98,2.914-2.846,4.08-4.56C224.517,105.601,221.745,107.468,221.077,110.161z M226.356,105.121
			c-0.176-0.931,0.76-3.606-0.24-4.801c1.92-2.161,3.816-4.344,6-6.239c0.408-0.089,0.453,0.187,0.48,0.479
			C230.923,98.488,228.407,101.571,226.356,105.121z M235.716,78.72c0.518,3.638-2.506,5.813-3.6,8.64
			C233.181,84.343,234.62,81.704,235.716,78.72z M234.276,74.4c0.848,2.211-0.359,4.438-0.961,6
			c-0.631,0.071-0.188-0.931-0.959-0.72C233.274,78.199,232.878,75.403,234.276,74.4z M232.837,80.64
			c-0.182,2.061-2.652,3.906-4.08,5.521C228.601,83.763,231.575,82.421,232.837,80.64z M221.796,104.161
			c0.182-1.486,1.887-3.105,3.121-4.801c0.816-1.122,1.297-2.792,2.639-3.12C226.104,99.347,223.411,101.214,221.796,104.161z
			 M225.396,89.52c-0.084,0.315-0.422,0.378-0.479,0.72C224.319,90.143,224.901,89.31,225.396,89.52z M225.396,92.4
			c-0.326-0.814,1.389-1.646,1.682-2.64C227.729,90.901,226.011,91.728,225.396,92.4z M226.597,82.56
			c-0.105,0.384-0.66,2.374-1.92,2.4C224.2,83.914,226.183,83.493,226.597,82.56z M222.997,85.92
			c-0.031,1.493-2.217,2.901-3.121,4.319C219.606,88.448,222.155,87.4,222.997,85.92z M218.677,68.88
			c-0.84-0.55,0.75-0.667,0.719-1.2C219.983,67.978,218.677,68.378,218.677,68.88z M219.636,61.44
			c-0.379,0.426-0.857,1.471-1.439,0.96C218.204,61.609,218.88,61.483,219.636,61.44z M220.356,77.76
			c-0.113,0.163-2.186,2.82-2.881,4.08C217.233,80.234,219.214,78.78,220.356,77.76z M194.677,44.161
			c0.379-0.518,0.857,0.885,1.439,0.96C195.839,45.536,194.983,44.509,194.677,44.161z M198.036,58.8
			c-0.713-2.156,0.332-4.625,0-7.2C199.509,53.007,198.63,57.182,198.036,58.8z M213.396,59.28c-0.715,1.523-2.643,1.837-3.84,2.881
			C210.808,61.17,211.415,59.54,213.396,59.28z M202.116,48.24c0.574-1.122,0.873,0.053,1.68-0.479
			c0.652,1.028,0.604,2.756,1.92,3.12c0.359-0.07-0.148-1.27-0.479-1.44c1.348-0.063,2.396,3.518,4.318,2.88
			c0.947,0.813,1.602,1.919,2.16,3.12c-1.057,0.304-1.299,1.422-2.4,1.681c-2.008-1.352-3.459-3.26-5.279-4.801
			c-1.215,1.985-2.189,4.211-3.84,5.761c0.004-1.36,0.445-4.354,0.24-6.721c0.701,0.179,0.465,1.296,1.439,1.2
			c0.234-1.462-0.977-2.668-1.68-3.84c-1.967-3.277-4.475-6.435-6.959-9.36C196.179,41.379,198.815,45.782,202.116,48.24z
			 M198.997,41.52c-0.918-0.626-4.188-2.184-3.84-4.08C196.392,38.844,197.761,40.116,198.997,41.52z M206.917,36
			c-0.732-0.628-1.398-1.322-2.4-1.681c-1.033,0.233-0.658,1.506-0.48,2.4c-2.049-1.092-3.703-2.825-5.76-4.32
			c-0.457,0.104-0.604,0.518-1.199,0.48c-0.787-1.294-2.992-1.169-3.361-2.88c6.604,2.517,13.828,4.413,18.961,8.399
			C211.679,38.543,209.144,36.025,206.917,36z M223.716,55.44c-0.326-1.513-1.875-1.805-1.68-3.84
			c-0.459-0.661-1.02-1.221-1.68-1.68C222.155,50.124,223.983,52.372,223.716,55.44z"/>
		<path fill-rule="evenodd" clip-rule="evenodd" d="M152.679,36.96c-0.189,1.071,0.366,1.628,0.239,0.239
			c0.156-1.522-0.315-3.676,0.24-4.8c-0.072,0.632,0.93,0.189,0.719,0.96c-0.164,3.76,0.965,5.955,1.68,8.88
			c0.422,1.723,0.424,3.611,0.961,5.28c0.467,1.449,1.006,3.279,2.4,3.84c1.65-1.672-0.398-3.81-0.961-5.52
			c-1.332-4.058-2.203-8.289-3.6-12.24c-0.346-0.979-0.93-1.92-1.199-2.88c-0.299-1.058,0.115-2.42-0.96-3.12
			c-0.34,1.896,0.381,4.713,0.48,6.96C152.679,35.36,152.679,36.161,152.679,36.96z"/>
		<path fill-rule="evenodd" clip-rule="evenodd" d="M155.316,32.161c-0.115-0.284-0.256-0.545-0.479-0.721
			C154.801,31.761,155.215,32.763,155.316,32.161z"/>
		<path fill-rule="evenodd" clip-rule="evenodd" d="M77.317,118.32c-0.516-1.17-0.873-3.134-2.398-3.359
			c-0.455,3.032,1.443,5.741,2.16,8.399c-1.5,1.595-0.322,6.692-0.721,8.641c-0.535-1.271-0.373-3.417-1.201-4.08
			c-1.248,0.399-0.609,1.755-0.479,2.64c0.133,0.905,0.742,1.992,0.959,2.88c0.484,1.977,0.861,4.346,1.201,6.24
			c0.146,0.822-0.621,2.081,0.719,2.4c1.424-2.441-1.09-6.228-0.479-8.641c0.057,1.196,0.805,2.25,1.199,3.36
			c0.402,1.133,0.373,2.702,1.439,3.36c0.797-0.874,0.586-2.402,0.48-3.36c-0.35-3.155-2.711-6.308-1.439-10.08
			c0.959,1.121,0.961,3.198,2.879,3.36c0.109-2.684-1.566-5.367-2.639-7.92C78.478,120.923,77.88,119.589,77.317,118.32z"/>
	</g>
</g>
</svg>
